<svg class="icon" viewBox="0 0 1024 1024" version="1.1" xmlns="http://www.w3.org/2000/svg" width="200" height="200">
  <path d="M924.8 385.6c-22.6-53.4-54.9-101.3-96-142.4-41.1-41.1-89-73.4-142.4-96C631.1 123.8 572.5 112 512 112s-119.1 11.8-174.4 35.2c-53.4 22.6-101.3 54.9-142.4 96-41.1 41.1-73.4 89-96 142.4C75.8 440.9 64 499.5 64 560c0 132.7 58.3 257.7 159.9 343.1l1.7 1.4c5.8 4.8 13.1 7.5 20.6 7.5h531.7c7.5 0 14.8-2.7 20.6-7.5l1.7-1.4C901.7 817.7 960 692.7 960 560c0-60.5-11.9-119.1-35.2-174.4zM761.4 836H262.6C184.5 765.5 140 665.6 140 560c0-99.4 38.7-192.8 109-263 70.3-70.3 163.7-109 263-109 99.4 0 192.8 38.7 263 109 70.3 70.3 109 163.7 109 263 0 105.6-44.5 205.5-122.6 276z" p-id="2001"></path>
  <path d="M512 400c-26.5 0-48 21.5-48 48s21.5 48 48 48 48-21.5 48-48-21.5-48-48-48z" p-id="2002"></path>
  <path d="M352 480c-26.5 0-48 21.5-48 48s21.5 48 48 48 48-21.5 48-48-21.5-48-48-48z" p-id="2003"></path>
  <path d="M672 480c-26.5 0-48 21.5-48 48s21.5 48 48 48 48-21.5 48-48-21.5-48-48-48z" p-id="2004"></path>
  <path d="M512 544c-42.1 0-76.9 32.3-80.7 73.4-1.3 14.6 9.6 27.6 24.2 28.9 0.8 0.1 1.6 0.1 2.4 0.1 13.6 0 25.1-10.3 26.5-24.1 1.1-12.3 11.4-21.7 23.8-22.3 0.6 0 1.3-0.1 1.9-0.1 13.8 0 25 11.2 25 25v90c0 14.9 12.1 27 27 27s27-12.1 27-27v-90c0-42.1-34.1-76.2-76.2-76.2z" p-id="2005"></path>
  <path d="M352 624c-42.1 0-76.9 32.3-80.7 73.4-1.3 14.6 9.6 27.6 24.2 28.9 0.8 0.1 1.6 0.1 2.4 0.1 13.6 0 25.1-10.3 26.5-24.1 1.1-12.3 11.4-21.7 23.8-22.3 0.6 0 1.3-0.1 1.9-0.1 13.8 0 25 11.2 25 25v30c0 14.9 12.1 27 27 27s27-12.1 27-27v-30c0-42.1-34.1-76.2-76.2-76.2z" p-id="2006"></path>
  <path d="M672 624c-42.1 0-76.9 32.3-80.7 73.4-1.3 14.6 9.6 27.6 24.2 28.9 0.8 0.1 1.6 0.1 2.4 0.1 13.6 0 25.1-10.3 26.5-24.1 1.1-12.3 11.4-21.7 23.8-22.3 0.6 0 1.3-0.1 1.9-0.1 13.8 0 25 11.2 25 25v30c0 14.9 12.1 27 27 27s27-12.1 27-27v-30c0-42.1-34.1-76.2-76.2-76.2z" p-id="2007"></path>
</svg>