<svg class="icon" viewBox="0 0 1024 1024" version="1.1" xmlns="http://www.w3.org/2000/svg" width="200" height="200">
  <path d="M512 112c-247.4 0-448 200.6-448 448s200.6 448 448 448 448-200.6 448-448-200.6-448-448-448z m0 76c205.4 0 372 166.6 372 372s-166.6 372-372 372-372-166.6-372-372 166.6-372 372-372z" p-id="1001"></path>
  <path d="M512 384c-52.9 0-96 43.1-96 96s43.1 96 96 96 96-43.1 96-96-43.1-96-96-96z m0 144c-26.5 0-48-21.5-48-48s21.5-48 48-48 48 21.5 48 48-21.5 48-48 48z" p-id="1002"></path>
  <path d="M704 672c-19.2-28.8-44.2-51.6-73.6-67.9-20.5 15.3-46.1 24.4-73.9 24.4-28.7 0-55.1-9.6-76.1-25.8-29.4 16.3-54.3 39.2-73.5 68.1-22.8 34.1-34.9 73.8-34.9 114.2 0 5.5 4.5 10 10 10h344c5.5 0 10-4.5 10-10 0-40.4-12.1-80-32-113z" p-id="1003"></path>
</svg>