<svg class="icon" viewBox="0 0 1024 1024" version="1.1" xmlns="http://www.w3.org/2000/svg" width="200" height="200">
  <path d="M924.8 385.6c-22.6-53.4-54.9-101.3-96-142.4-41.1-41.1-89-73.4-142.4-96C631.1 123.8 572.5 112 512 112s-119.1 11.8-174.4 35.2c-53.4 22.6-101.3 54.9-142.4 96-41.1 41.1-73.4 89-96 142.4C75.8 440.9 64 499.5 64 560c0 132.7 58.3 257.7 159.9 343.1l1.7 1.4c5.8 4.8 13.1 7.5 20.6 7.5h531.7c7.5 0 14.8-2.7 20.6-7.5l1.7-1.4C901.7 817.7 960 692.7 960 560c0-60.5-11.9-119.1-35.2-174.4zM761.4 836H262.6C184.5 765.5 140 665.6 140 560c0-99.4 38.7-192.8 109-263 70.3-70.3 163.7-109 263-109 99.4 0 192.8 38.7 263 109 70.3 70.3 109 163.7 109 263 0 105.6-44.5 205.5-122.6 276z" p-id="3001"></path>
  <path d="M512 320c-79.5 0-144 64.5-144 144s64.5 144 144 144 144-64.5 144-144-64.5-144-144-144z m0 224c-44.2 0-80-35.8-80-80s35.8-80 80-80 80 35.8 80 80-35.8 80-80 80z" p-id="3002"></path>
  <path d="M704 608h-32c-4.4 0-8 3.6-8 8v80c0 4.4 3.6 8 8 8h32c4.4 0 8-3.6 8-8v-80c0-4.4-3.6-8-8-8z" p-id="3003"></path>
  <path d="M592 608h-32c-4.4 0-8 3.6-8 8v80c0 4.4 3.6 8 8 8h32c4.4 0 8-3.6 8-8v-80c0-4.4-3.6-8-8-8z" p-id="3004"></path>
  <path d="M480 608h-32c-4.4 0-8 3.6-8 8v80c0 4.4 3.6 8 8 8h32c4.4 0 8-3.6 8-8v-80c0-4.4-3.6-8-8-8z" p-id="3005"></path>
  <path d="M368 608h-32c-4.4 0-8 3.6-8 8v80c0 4.4 3.6 8 8 8h32c4.4 0 8-3.6 8-8v-80c0-4.4-3.6-8-8-8z" p-id="3006"></path>
  <path d="M704 736h-368c-4.4 0-8 3.6-8 8v32c0 4.4 3.6 8 8 8h368c4.4 0 8-3.6 8-8v-32c0-4.4-3.6-8-8-8z" p-id="3007"></path>
</svg>