<?xml version="1.0" encoding="UTF-8"?>
<!DOCTYPE svg PUBLIC "-//W3C//DTD SVG 1.1//EN" "http://www.w3.org/Graphics/SVG/1.1/DTD/svg11.dtd">
<svg xmlns="http://www.w3.org/2000/svg" version="1.1" width="129px" height="132px" style="shape-rendering:geometricPrecision; text-rendering:geometricPrecision; image-rendering:optimizeQuality; fill-rule:evenodd; clip-rule:evenodd" xmlns:xlink="http://www.w3.org/1999/xlink">
<g><path style="opacity:0.996" fill="#fc9493" d="M 42.5,1.5 C 52.1047,-0.0610387 56.2713,3.93896 55,13.5C 54.2155,15.286 53.0488,16.786 51.5,18C 41.8887,20.0548 37.7221,16.2215 39,6.5C 39.9973,4.67694 41.1639,3.01027 42.5,1.5 Z"/></g>
<g><path style="opacity:0.999" fill="#d42a22" d="M 85.5,3.5 C 87.1423,4.80299 88.8089,6.13632 90.5,7.5C 91.8299,10.4397 91.6633,13.4397 90,16.5C 84.9646,21.7031 79.798,26.7031 74.5,31.5C 65.1115,39.8869 56.4448,48.8869 48.5,58.5C 43.3697,64.1314 38.0363,69.6314 32.5,75C 30.5273,75.4955 28.5273,75.6621 26.5,75.5C 25.1007,74.1103 23.4341,73.1103 21.5,72.5C 19.6883,70.2866 19.3549,67.9533 20.5,65.5C 22.8777,63.1215 24.8777,60.4549 26.5,57.5C 29.5,56.5 31.5,54.5 32.5,51.5C 34.1667,49.1667 36.1667,47.1667 38.5,45.5C 45.5,39.1667 52.1667,32.5 58.5,25.5C 66.1667,18.5 73.5,11.1667 80.5,3.5C 82.1667,2.16667 83.8333,2.16667 85.5,3.5 Z"/></g>
<g><path style="opacity:0.02" fill="#ebd8e0" d="M 85.5,3.5 C 88.3667,3.36922 90.0334,4.70256 90.5,7.5C 88.8089,6.13632 87.1423,4.80299 85.5,3.5 Z"/></g>
<g><path style="opacity:0.604" fill="#d68a93" d="M 80.5,3.5 C 73.5,11.1667 66.1667,18.5 58.5,25.5C 58.5,25.1667 58.5,24.8333 58.5,24.5C 65.2216,16.7765 72.555,9.77649 80.5,3.5 Z"/></g>
<g><path style="opacity:1" fill="#d42922" d="M 108.5,18.5 C 109.795,19.4884 111.128,20.4884 112.5,21.5C 114.151,23.4021 114.484,25.4021 113.5,27.5C 107.533,34.4715 101.533,41.4715 95.5,48.5C 86.3689,58.1317 77.0356,67.6317 67.5,77C 66.552,77.4828 65.552,77.6495 64.5,77.5C 62.5648,76.8505 60.5648,76.5172 58.5,76.5C 58.1667,75.5 57.5,74.8333 56.5,74.5C 54.466,72.3452 54.1326,70.0118 55.5,67.5C 64.1947,58.8065 72.528,49.8065 80.5,40.5C 82.1667,38.1667 84.1667,36.1667 86.5,34.5C 92.1667,29.5 97.5,24.1667 102.5,18.5C 104.611,17.2584 106.611,17.2584 108.5,18.5 Z"/></g>
<g><path style="opacity:0.212" fill="#e6b5bb" d="M 108.5,18.5 C 110.973,18.0882 112.306,19.0882 112.5,21.5C 111.128,20.4884 109.795,19.4884 108.5,18.5 Z"/></g>
<g><path style="opacity:0.998" fill="#d05f5f" d="M 35.5,33.5 C 28.7751,39.2228 22.7751,45.5561 17.5,52.5C 12.8085,60.0241 6.80854,61.3574 -0.5,56.5C -0.5,53.5 -0.5,50.5 -0.5,47.5C 6.55773,41.4443 12.8911,34.7776 18.5,27.5C 21.9663,21.4008 26.9663,19.5674 33.5,22C 36.5,25.5304 37.1666,29.3638 35.5,33.5 Z"/></g>
<g><path style="opacity:0.427" fill="#e4b6bd" d="M 102.5,18.5 C 97.5,24.1667 92.1667,29.5 86.5,34.5C 90.8333,28.1667 96.1667,22.8333 102.5,18.5 Z"/></g>
<g><path style="opacity:0.02" fill="#f0dee4" d="M 74.5,31.5 C 66.5552,41.1131 57.8885,50.1131 48.5,58.5C 56.4448,48.8869 65.1115,39.8869 74.5,31.5 Z"/></g>
<g><path style="opacity:0.157" fill="#e7d8e2" d="M 58.5,24.5 C 58.5,24.8333 58.5,25.1667 58.5,25.5C 52.1667,32.5 45.5,39.1667 38.5,45.5C 44.4427,37.8886 51.1094,30.8886 58.5,24.5 Z"/></g>
<g><path style="opacity:0.62" fill="#da8e8f" d="M 18.5,27.5 C 12.8911,34.7776 6.55773,41.4443 -0.5,47.5C -0.5,46.8333 -0.5,46.1667 -0.5,45.5C 5.83333,39.5 12.1667,33.5 18.5,27.5 Z"/></g>
<g><path style="opacity:0.212" fill="#e7b3b9" d="M 113.5,27.5 C 113.657,28.8734 113.49,30.2068 113,31.5C 107.298,37.3696 101.465,43.0362 95.5,48.5C 101.533,41.4715 107.533,34.4715 113.5,27.5 Z"/></g>
<g><path style="opacity:1" fill="#d32520" d="M 125.5,43.5 C 125.427,45.0269 126.094,46.0269 127.5,46.5C 127.833,46.5 128.167,46.5 128.5,46.5C 128.5,48.1667 128.5,49.8333 128.5,51.5C 123.257,58.4139 117.257,64.7473 110.5,70.5C 99.7791,80.2195 89.7791,90.5529 80.5,101.5C 71.8333,110.833 62.8333,119.833 53.5,128.5C 52.1667,129.167 51.1667,130.167 50.5,131.5C 47.1667,131.5 43.8333,131.5 40.5,131.5C 40.1667,130.5 39.5,129.833 38.5,129.5C 37.1667,126.833 37.1667,124.167 38.5,121.5C 48.2216,112.78 57.2216,103.447 65.5,93.5C 67.1667,91.1667 69.1667,89.1667 71.5,87.5C 79.1667,80.5 86.5,73.1667 93.5,65.5C 101.298,58.2025 108.965,50.7025 116.5,43C 119.555,42.3658 122.555,42.5325 125.5,43.5 Z"/></g>
<g><path style="opacity:0.459" fill="#de9898" d="M 35.5,33.5 C 30.2249,40.4439 24.2249,46.7772 17.5,52.5C 22.7751,45.5561 28.7751,39.2228 35.5,33.5 Z"/></g>
<g><path style="opacity:0.933" fill="#d1808b" d="M 125.5,43.5 C 122.555,42.5325 119.555,42.3658 116.5,43C 108.965,50.7025 101.298,58.2025 93.5,65.5C 93.5,65.1667 93.5,64.8333 93.5,64.5C 100.631,56.8684 107.964,49.3684 115.5,42C 118.5,41.3333 121.5,41.3333 124.5,42C 125.056,42.3826 125.389,42.8826 125.5,43.5 Z"/></g>
<g><path style="opacity:0.627" fill="#d6909a" d="M 125.5,43.5 C 126.906,43.9731 127.573,44.9731 127.5,46.5C 126.094,46.0269 125.427,45.0269 125.5,43.5 Z"/></g>
<g><path style="opacity:0.933" fill="#d27b85" d="M 80.5,40.5 C 72.528,49.8065 64.1947,58.8065 55.5,67.5C 55.3505,66.448 55.5172,65.448 56,64.5C 64.035,56.2976 72.2017,48.2976 80.5,40.5 Z"/></g>
<g><path style="opacity:0.694" fill="#e17872" d="M 32.5,51.5 C 31.5,54.5 29.5,56.5 26.5,57.5C 28.1667,55.1667 30.1667,53.1667 32.5,51.5 Z"/></g>
<g><path style="opacity:0.604" fill="#da9098" d="M 26.5,57.5 C 24.8777,60.4549 22.8777,63.1215 20.5,65.5C 21.3128,62.0105 23.3128,59.3438 26.5,57.5 Z"/></g>
<g><path style="opacity:0.604" fill="#e1aab2" d="M 21.5,72.5 C 23.4341,73.1103 25.1007,74.1103 26.5,75.5C 24.0672,75.7271 22.4006,74.7271 21.5,72.5 Z"/></g>
<g><path style="opacity:0.212" fill="#efc5c8" d="M 56.5,74.5 C 57.5,74.8333 58.1667,75.5 58.5,76.5C 57.1667,76.5 56.5,75.8333 56.5,74.5 Z"/></g>
<g><path style="opacity:0.427" fill="#e3b3bb" d="M 93.5,64.5 C 93.5,64.8333 93.5,65.1667 93.5,65.5C 86.5,73.1667 79.1667,80.5 71.5,87.5C 78.1102,79.2213 85.4435,71.5546 93.5,64.5 Z"/></g>
<g><path style="opacity:1" fill="#df8383" d="M 58.5,76.5 C 60.5648,76.5172 62.5648,76.8505 64.5,77.5C 62.4021,78.4845 60.4021,78.1511 58.5,76.5 Z"/></g>
<g><path style="opacity:0.2" fill="#ebbdc1" d="M 110.5,70.5 C 101.221,81.4471 91.2209,91.7805 80.5,101.5C 89.7791,90.5529 99.7791,80.2195 110.5,70.5 Z"/></g>
<g><path style="opacity:0.991" fill="#d16464" d="M 128.5,85.5 C 128.5,86.8333 128.5,88.1667 128.5,89.5C 124.465,95.0454 119.798,100.212 114.5,105C 103.279,107.449 99.4459,103.283 103,92.5C 107.167,88.3333 111.333,84.1667 115.5,80C 121.764,77.9553 126.097,79.7886 128.5,85.5 Z"/></g>
<g><path style="opacity:1" fill="#fc8e8e" d="M 11.5,80.5 C 16.8333,85.5 16.8333,90.5 11.5,95.5C 6.34001,97.6865 2.34001,96.3532 -0.5,91.5C -0.5,89.1667 -0.5,86.8333 -0.5,84.5C 2.44048,79.802 6.44048,78.4687 11.5,80.5 Z"/></g>
<g><path style="opacity:0.996" fill="#d06161" d="M 18.5,103.5 C 25.5,97.1667 32.1667,90.5 38.5,83.5C 42.2296,80.9908 45.8963,81.3241 49.5,84.5C 51.9668,88.0649 52.1334,91.7316 50,95.5C 42.1366,103.698 33.97,111.531 25.5,119C 15.9432,120.102 12.4432,115.935 15,106.5C 16.0391,105.29 17.2058,104.29 18.5,103.5 Z"/></g>
<g><path style="opacity:0.247" fill="#fcc3c4" d="M 11.5,80.5 C 15.0028,81.6486 16.6695,84.1486 16.5,88C 16.6695,91.8514 15.0028,94.3514 11.5,95.5C 16.8333,90.5 16.8333,85.5 11.5,80.5 Z"/></g>
<g><path style="opacity:0.584" fill="#dc9192" d="M 38.5,83.5 C 32.1667,90.5 25.5,97.1667 18.5,103.5C 18.369,102.761 18.5357,102.094 19,101.5C 25.0899,94.9043 31.5899,88.9043 38.5,83.5 Z"/></g>
<g><path style="opacity:0.933" fill="#d27c86" d="M 65.5,93.5 C 57.2216,103.447 48.2216,112.78 38.5,121.5C 46.7784,111.553 55.7784,102.22 65.5,93.5 Z"/></g>
<g><path style="opacity:0.169" fill="#fcd0d1" d="M 87.5,118.5 C 83.0649,116.795 79.0649,117.461 75.5,120.5C 75.5743,118.589 76.5743,117.422 78.5,117C 81.1667,116.333 83.8333,116.333 86.5,117C 87.056,117.383 87.3893,117.883 87.5,118.5 Z"/></g>
<g><path style="opacity:0.993" fill="#fc8e8d" d="M 87.5,118.5 C 91.8329,122.187 92.4996,126.52 89.5,131.5C 84.8333,131.5 80.1667,131.5 75.5,131.5C 74.9408,129.321 74.2741,127.154 73.5,125C 73.899,123.272 74.5657,121.772 75.5,120.5C 79.0649,117.461 83.0649,116.795 87.5,118.5 Z"/></g>
<g><path style="opacity:0.212" fill="#e7b8be" d="M 38.5,129.5 C 39.5,129.833 40.1667,130.5 40.5,131.5C 39.8333,131.5 39.1667,131.5 38.5,131.5C 38.5,130.833 38.5,130.167 38.5,129.5 Z"/></g>
<g><path style="opacity:0.2" fill="#edc2c6" d="M 53.5,128.5 C 53.4431,129.609 53.1098,130.609 52.5,131.5C 51.8333,131.5 51.1667,131.5 50.5,131.5C 51.1667,130.167 52.1667,129.167 53.5,128.5 Z"/></g>
</svg>
