<svg width="15" height="15" viewBox="0 0 24 24" fill="none" xmlns="http://www.w3.org/2000/svg">
  <path d="M12 5H9C7.11438 5 6.17157 5 5.58579 5.58579C5 6.17157 5 7.11438 5 9V15C5 16.8856 5 17.8284 5.58579 18.4142C6.17157 19 7.11438 19 9 19H15C16.8856 19 17.8284 19 18.4142 18.4142C19 17.8284 19 16.8856 19 15V12M9 15H11L18.5 7.5C19.0523 6.94772 19.0523 6.05228 18.5 5.5C17.9477 4.94772 17.0523 4.94772 16.5 5.5L9 13V15Z" stroke="currentColor" stroke-width="2" stroke-linecap="round" stroke-linejoin="round"/>
</svg>